# File units = meters
mtllib Assembly 1.mtl
g Part 3
v 13.0332 3.27542 0.551873 
v 13.0332 3.03542 0.551873 
v 15.5246 3.03542 0.551873 
v 15.5246 3.27542 0.551873 
v 13.0332 3.27542 2.75187 
v 13.0332 3.03542 2.75187 
v 15.5246 3.27542 2.75187 
v 15.5246 3.03542 2.75187 
v 15.5746 3.27542 0.501873 
v 12.9832 3.27542 0.501873 
v 12.9832 3.27542 2.80187 
v 15.5746 3.27542 2.80187 
v 15.5746 3.03542 0.501873 
v 15.5746 3.03542 2.80187 
v 12.9832 3.03542 2.80187 
v 12.9832 3.03542 0.501873 
vn 0 0 1 
vn 1 0 0 
vn 0 0 -1 
vn -1 0 -1.89243e-16 
vn 0 1 0 
vn 0 -1 0 
vn -1 0 0 
vn 0 0 -1 
vn 1 0 0 
vn -5.65331e-16 0 1 
usemtl 0.600000_0.600000_0.600000_0.000000_0.000000
o mesh0
f 1//1 2//1 3//1 
f 3//1 4//1 1//1 
o mesh1
f 5//2 6//2 2//2 
f 2//2 1//2 5//2 
o mesh2
f 7//3 8//3 6//3 
f 6//3 5//3 7//3 
o mesh3
f 4//4 3//4 8//4 
f 8//4 7//4 4//4 
o mesh4
f 9//5 10//5 1//5 
f 10//5 11//5 5//5 
f 5//5 1//5 10//5 
f 12//5 7//5 5//5 
f 12//5 9//5 4//5 
f 5//5 11//5 12//5 
f 1//5 4//5 9//5 
f 4//5 7//5 12//5 
o mesh5
f 13//6 3//6 2//6 
f 14//6 8//6 3//6 
f 3//6 13//6 14//6 
f 14//6 15//6 6//6 
f 6//6 8//6 14//6 
f 15//6 16//6 2//6 
f 2//6 6//6 15//6 
f 2//6 16//6 13//6 
o mesh6
f 10//7 16//7 15//7 
f 15//7 11//7 10//7 
o mesh7
f 9//8 13//8 16//8 
f 16//8 10//8 9//8 
o mesh8
f 12//9 14//9 13//9 
f 13//9 9//9 12//9 
o mesh9
f 11//10 15//10 14//10 
f 14//10 12//10 11//10 
g Part 6
v 20.2046 3.21042 0.526873 
v 20.2046 3.10042 0.526873 
v 16.2246 3.10042 0.526873 
v 16.2246 3.21042 0.526873 
v 20.2046 3.21042 2.72687 
v 20.2046 3.10042 2.72687 
v 16.2246 3.21042 2.72687 
v 16.2246 3.10042 2.72687 
vn 0 0 -1 
vn 1 0 0 
vn 0 0 1 
vn -1 0 0 
vn 0 1 0 
vn 0 -1 0 
usemtl 0.901961_0.878431_0.811765_0.000000_0.533333
o mesh10
f 17//11 18//11 19//11 
f 19//11 20//11 17//11 
o mesh11
f 21//12 22//12 18//12 
f 18//12 17//12 21//12 
o mesh12
f 23//13 24//13 22//13 
f 22//13 21//13 23//13 
o mesh13
f 20//14 19//14 24//14 
f 24//14 23//14 20//14 
o mesh14
f 21//15 17//15 20//15 
f 20//15 23//15 21//15 
o mesh15
f 24//16 19//16 18//16 
f 18//16 22//16 24//16 
g Part 1
v 10.7546 9.23542 0.476873 
v 15.1346 9.23542 0.476873 
v 15.1346 9.23542 0.526873 
v 10.7546 9.23542 0.526873 
v 10.7546 3.27542 0.526873 
v 10.7546 3.27542 0.476873 
v 12.9832 3.27542 0.526873 
v 12.9832 3.27542 0.476873 
v 12.9832 3.03542 0.526873 
v 12.9832 3.03542 0.476873 
v 15.1346 9.07962 0.526873 
v 15.1346 9.07962 0.476873 
v 16.1346 9.07962 0.476873 
v 16.1346 9.07962 0.526873 
v 16.1346 9.23542 0.476873 
v 16.1346 9.23542 0.526873 
v 20.2546 9.23542 0.476873 
v 20.2546 9.23542 0.526873 
v 20.2546 9.07973 0.476873 
v 20.2546 9.07973 0.526873 
v 20.7546 9.07973 0.476873 
v 20.7546 9.07973 0.526873 
v 20.7546 9.47542 0.526873 
v 15.6346 9.47542 0.526873 
v 10.5146 9.47542 0.526873 
v 10.5146 3.03542 0.526873 
v 20.7546 9.47542 0.376873 
v 15.6346 9.47542 0.376873 
v 10.5146 9.47542 0.376873 
v 10.5146 3.03542 0.376873 
v 20.7546 3.03542 0.376873 
v 15.6346 3.03542 0.376873 
v 20.7546 3.03542 0.526873 
v 20.7546 3.43111 0.476873 
v 20.7546 3.43111 0.526873 
v 20.2546 3.03542 0.526873 
v 20.2546 3.43111 0.526873 
v 20.2546 3.43111 0.476873 
v 20.2546 3.03542 0.476873 
v 15.5746 3.27542 0.476873 
v 16.1746 3.27542 0.476873 
v 14.0035 3.27542 0.476873 
v 15.5746 3.03542 0.476873 
v 14.0035 3.03542 0.476873 
v 13.9035 3.27542 0.476873 
v 13.9035 3.03542 0.476873 
v 16.1746 3.03542 0.476873 
v 13.9035 3.27542 0.526873 
v 14.0035 3.27542 0.526873 
v 13.9035 3.03542 0.526873 
v 14.0035 3.03542 0.526873 
v 16.1746 3.03542 0.526873 
v 15.5746 3.03542 0.526873 
v 16.1746 3.27542 0.526873 
v 15.5746 3.27542 0.526873 
vn 0 -1 0 
vn 1 -1.49023e-16 0 
vn 0 1 0 
vn -1 0 0 
vn 0 -1 0 
vn 1 0 0 
vn -1 0 0 
vn 0 -1 0 
vn 0 0 1 
vn 0 1 0 
vn -1 1.37916e-16 0 
vn 0 0 -1 
vn 1 -1.37916e-16 0 
vn 0 0 1 
vn -1 0 0 
vn 0 1 0 
vn 0 0 1 
vn 1 0 2.89623e-16 
vn -1 0 -4.82706e-16 
vn 0 -1 0 
vn 0 1 0 
vn 0 0 1 
vn 1 0 1.44812e-16 
vn -1 0 -2.68505e-16 
usemtl 0.380392_0.258824_0.117647_0.000000_0.000000
o mesh16
f 25//17 26//17 27//17 
f 27//17 28//17 25//17 
o mesh17
f 29//18 30//18 25//18 
f 25//18 28//18 29//18 
o mesh18
f 31//19 32//19 30//19 
f 30//19 29//19 31//19 
usemtl 0.901961_0.901961_0.901961_0.000000_0.000000
o mesh19
f 32//18 31//18 33//18 
f 33//18 34//18 32//18 
usemtl 0.576471_0.415686_0.219608_0.000000_0.000000
o mesh20
f 35//20 27//20 26//20 
f 26//20 36//20 35//20 
o mesh21
f 37//21 38//21 35//21 
f 35//21 36//21 37//21 
o mesh22
f 37//22 39//22 40//22 
f 40//22 38//22 37//22 
usemtl 0.380392_0.258824_0.117647_0.000000_0.000000
o mesh23
f 41//21 42//21 40//21 
f 40//21 39//21 41//21 
usemtl 0.576471_0.415686_0.219608_0.000000_0.000000
o mesh24
f 42//23 41//23 43//23 
f 43//23 44//23 42//23 
o mesh25
f 44//24 43//24 45//24 
f 45//24 46//24 44//24 
o mesh26
f 46//25 47//25 42//25 
f 47//25 48//25 40//25 
f 38//25 40//25 48//25 
f 40//25 42//25 47//25 
f 48//25 35//25 38//25 
f 48//25 27//25 35//25 
f 49//25 28//25 27//25 
f 27//25 48//25 49//25 
f 49//25 50//25 29//25 
f 29//25 28//25 49//25 
f 33//25 31//25 29//25 
f 29//25 50//25 33//25 
f 42//25 44//25 46//25 
usemtl 0.380392_0.258824_0.117647_0.000000_0.000000
o mesh27
f 51//26 52//26 48//26 
f 49//26 48//26 52//26 
f 52//26 53//26 49//26 
f 48//26 47//26 51//26 
o mesh28
f 53//27 54//27 50//27 
f 50//27 49//27 53//27 
usemtl 0.611765_0.478431_0.321569_0.000000_0.000000
o mesh29
f 55//28 56//28 52//28 
f 53//28 52//28 56//28 
f 56//28 54//28 53//28 
f 52//28 51//28 55//28 
usemtl 0.380392_0.258824_0.117647_0.000000_0.000000
o mesh30
f 57//29 55//29 58//29 
f 55//29 51//29 45//29 
f 45//29 58//29 55//29 
f 47//29 46//29 45//29 
f 45//29 51//29 47//29 
f 58//29 59//29 57//29 
usemtl 0.576471_0.415686_0.219608_0.000000_0.000000
o mesh31
f 60//30 57//30 59//30 
f 59//30 61//30 60//30 
o mesh32
f 62//31 63//31 60//31 
f 60//31 61//31 62//31 
o mesh33
f 59//32 58//32 62//32 
f 62//32 61//32 59//32 
usemtl 0.611765_0.478431_0.321569_0.000000_0.000000
o mesh34
f 37//33 64//33 65//33 
f 37//33 66//33 64//33 
f 63//33 62//33 65//33 
f 65//33 62//33 37//33 
f 62//33 58//33 37//33 
f 67//33 64//33 66//33 
f 66//33 68//33 67//33 
f 37//33 32//33 69//33 
f 69//33 66//33 37//33 
f 70//33 69//33 32//33 
f 32//33 34//33 70//33 
f 32//33 37//33 36//33 
f 25//33 30//33 36//33 
f 36//33 30//33 32//33 
f 39//33 37//33 43//33 
f 58//33 45//33 43//33 
f 65//33 71//33 63//33 
f 43//33 37//33 58//33 
f 43//33 41//33 39//33 
f 36//33 26//33 25//33 
usemtl 0.380392_0.258824_0.117647_0.000000_0.000000
o mesh35
f 72//32 73//32 66//32 
f 66//32 69//32 72//32 
o mesh36
f 73//33 72//33 74//33 
f 74//33 75//33 73//33 
usemtl 0.901961_0.901961_0.901961_0.000000_0.000000
o mesh37
f 66//34 73//34 75//34 
f 75//34 68//34 66//34 
o mesh38
f 74//35 72//35 69//35 
f 69//35 70//35 74//35 
usemtl 0.380392_0.258824_0.117647_0.000000_0.000000
o mesh39
f 54//36 68//36 70//36 
f 74//36 70//36 68//36 
f 76//36 67//36 56//36 
f 68//36 75//36 74//36 
f 56//36 67//36 68//36 
f 76//36 77//36 67//36 
f 55//36 63//36 71//36 
f 50//36 54//36 34//36 
f 68//36 54//36 56//36 
f 71//36 56//36 55//36 
f 57//36 60//36 63//36 
f 70//36 34//36 54//36 
f 63//36 55//36 57//36 
f 56//36 71//36 76//36 
f 34//36 33//36 50//36 
o mesh40
f 78//37 65//37 64//37 
f 64//37 79//37 78//37 
o mesh41
f 78//38 79//38 77//38 
f 77//38 76//38 78//38 
usemtl 0.615686_0.811765_0.929412_0.000000_0.000000
o mesh42
f 76//39 71//39 65//39 
f 65//39 78//39 76//39 
usemtl 0.901961_0.901961_0.901961_0.000000_0.000000
o mesh43
f 77//40 79//40 64//40 
f 64//40 67//40 77//40 
g Part 2
v 14.0035 3.27542 0.476873 
v 13.9054 3.27542 0.476873 
v 13.9054 3.38463 0.476873 
v 14.0035 3.38463 0.476873 
v 14.0035 3.27542 0.526873 
v 13.9054 3.27542 0.526873 
v 13.9054 3.38463 3.08357 
v 14.001 3.38463 3.08366 
v 13.9054 3.45184 3.08357 
v 14.001 3.45184 3.08366 
v 14.0035 3.45184 0.476873 
v 13.9054 3.45184 0.476873 
v 13.9054 3.5358 0.476873 
v 14.0035 3.5358 0.476873 
v 13.9054 3.5358 3.08357 
v 14.001 3.5358 3.08366 
v 14.001 3.60302 3.08366 
v 13.9054 3.60302 3.08357 
v 14.0035 3.60302 0.476873 
v 13.9054 3.60302 0.476873 
v 13.9054 3.67839 0.476873 
v 14.0035 3.67839 0.476873 
v 13.9054 3.67839 3.08357 
v 14.001 3.67839 3.08366 
v 13.9054 3.74561 3.08357 
v 14.001 3.74561 3.08366 
v 14.0035 3.74561 0.476873 
v 13.9054 3.74561 0.476873 
v 13.9054 3.81557 0.476873 
v 14.0035 3.81557 0.476873 
v 13.9054 3.81557 3.08357 
v 14.001 3.81557 3.08366 
v 13.9054 3.88 3.08357 
v 14.001 3.88 3.08366 
v 14.0035 3.88 0.476873 
v 13.9054 3.88 0.476873 
v 13.9054 3.99084 0.476873 
v 14.0035 3.99084 0.476873 
v 13.9054 3.99084 3.08357 
v 14.001 3.99084 3.08366 
v 14.001 4.05527 3.08366 
v 13.9054 4.05527 3.08357 
v 14.0035 4.05527 0.476873 
v 13.9054 4.05527 0.476873 
v 13.9054 4.12523 0.476873 
v 14.0035 4.12523 0.476873 
v 13.9054 4.12523 3.08357 
v 14.001 4.12523 3.08366 
v 14.001 4.19245 3.08366 
v 13.9054 4.19245 3.08357 
v 14.0035 4.19245 0.476873 
v 13.9054 4.19245 0.476873 
v 13.9054 4.26782 0.476873 
v 14.0035 4.26782 0.476873 
v 13.9054 4.26782 3.08357 
v 14.001 4.26782 3.08366 
v 13.9054 4.33504 3.08357 
v 14.001 4.33504 3.08366 
v 14.0035 4.33504 0.476873 
v 13.9054 4.33504 0.476873 
v 13.9054 4.41899 0.476873 
v 14.0035 4.41899 0.476873 
v 13.9054 4.41899 3.08357 
v 14.001 4.41899 3.08366 
v 14.001 4.48621 3.08366 
v 13.9054 4.48621 3.08357 
v 14.0035 4.48621 0.476873 
v 13.9054 4.48621 0.476873 
v 13.9054 4.59542 0.476873 
v 14.0035 4.59542 0.476873 
v 13.9054 4.59542 3.22687 
v 14.0008 4.59542 3.22687 
v 14.0008 3.27542 3.22687 
v 13.9054 3.27542 3.22687 
v 14.0035 3.03542 0.526873 
v 13.9035 3.03542 0.526873 
v 13.9035 3.27542 0.526873 
v 14.0035 3.27542 0.526873 
v 14.0035 3.27542 2.77687 
v 14.0035 3.03542 2.77687 
v 15.5746 3.03542 2.77687 
v 15.5746 3.27542 2.77687 
v 15.5746 3.03542 0.526873 
v 15.5746 3.27542 0.526873 
v 16.1746 3.27542 0.526873 
v 16.1746 3.03542 0.526873 
v 16.1746 3.27542 2.77687 
v 16.1746 3.03542 2.77687 
v 20.2546 3.27542 3.22687 
v 20.2546 3.27542 2.77687 
v 20.2546 3.03542 2.77687 
v 13.9035 3.03542 2.77687 
v 13.9035 3.27542 2.77687 
v 12.9832 3.03542 2.77687 
v 12.9832 3.27542 2.77687 
v 12.9832 3.03542 0.526873 
v 12.9832 3.27542 0.526873 
v 10.7546 3.27542 0.526873 
v 10.7546 3.27542 3.22687 
v 20.2546 3.43111 3.22687 
v 20.2546 3.43111 0.526873 
v 20.2546 3.03542 0.526873 
v 20.7546 3.43111 0.526873 
v 20.7546 3.03542 0.526873 
v 20.7546 3.03542 3.22687 
v 15.6346 3.03542 3.22687 
v 10.5146 3.03542 3.22687 
v 10.5146 3.03542 0.526873 
v 10.5146 9.47542 3.22687 
v 10.5146 9.47542 0.526873 
v 15.6346 9.47542 3.22687 
v 15.6346 9.47542 0.526873 
v 20.7546 9.47542 0.526873 
v 20.7546 9.47542 3.22687 
v 20.7546 9.07973 2.72687 
v 20.7546 3.43111 2.72687 
v 20.7546 9.07973 0.526873 
v 20.5146 3.43111 2.72687 
v 20.5146 3.43111 3.22687 
v 20.5146 9.07973 3.22687 
v 20.5146 9.07973 2.72687 
v 20.2546 9.23542 3.22687 
v 10.7546 9.23542 3.22687 
v 20.2546 9.15532 3.22687 
v 10.7546 9.15532 3.22687 
v 10.7546 9.07973 3.22687 
v 10.7546 9.07973 2.28753 
v 10.7546 9.23542 0.526873 
v 10.7546 9.15532 2.28753 
v 20.2546 9.23542 0.526873 
v 20.2546 9.15532 2.28753 
v 20.2546 9.07973 0.526873 
v 20.2546 9.07973 2.28753 
v 15.1346 9.15532 2.28753 
v 15.1346 9.07973 2.28753 
v 16.1346 9.07973 2.28753 
v 16.1346 9.15532 2.28753 
v 15.1346 9.23542 0.526873 
v 15.1346 9.07962 0.526873 
v 16.1346 9.07962 0.526873 
v 16.1346 9.23542 0.526873 
v 15.1346 9.07973 3.22187 
v 16.1346 9.07973 3.22187 
v 15.1346 9.07962 3.22187 
v 16.1346 9.07962 3.22187 
v 16.1346 9.15532 3.22187 
v 15.1346 9.15532 3.22187 
v 16.1346 9.23542 3.22187 
v 15.1346 9.23542 3.22187 
vn 0 0 -1 
vn 0 -1 0 
vn 0 1 0 
vn 0.000980831 0 -1 
vn 0 -1 0 
vn 0 0 -1 
vn 0 1 0 
vn 0.000980831 0 -1 
vn 3.34186e-19 -1 -3.40717e-16 
vn 0 0 -1 
vn -3.34186e-19 1 3.40717e-16 
vn 0.000980831 0 -1 
vn 0 -1 0 
vn 0 0 -1 
vn 0 1 0 
vn 0.000980831 0 -1 
vn 0 -1 0 
vn 0 0 -1 
vn -3.34186e-19 1 3.40717e-16 
vn 0.000980831 0 -1 
vn 3.34186e-19 -1 -3.40717e-16 
vn 0 0 -1 
vn 0 1 0 
vn 0.000980831 0 -1 
vn 0 -1 0 
vn 0 0 -1 
vn 1.67093e-19 1 -1.70359e-16 
vn 0.000980831 0 -1 
vn 0 -1 0 
vn 0 0 -1 
vn -1.67093e-19 1 1.70359e-16 
vn 0.000980831 0 -1 
vn 1.67093e-19 -1 -1.70359e-16 
vn 0 0 -1 
vn 0 1 0 
vn 1 0 0.000980831 
vn -1 0 1.61487e-16 
vn 0 0 -1 
vn 1 0 2.89623e-16 
vn -1 0 -2.68505e-16 
vn 0 0 -1 
vn 1 0 1.44812e-16 
vn 0 1 0 
vn 3.26536e-16 0 -1 
vn -1 0 -4.82706e-16 
vn 1 0 0 
vn 0 1 0 
vn -1 0 0 
vn 0 0 -1 
vn 0 -1 0 
vn -1 0 0 
vn 0 1 0 
vn 1 0 0 
vn -1 1.49023e-16 0 
vn 0 0 -1 
vn 0 0 1 
vn 1 -1.49023e-16 0 
vn -1 0 0 
vn 0 0 -1 
vn 0 -1 0 
vn 0 0 1 
vn 0 1 0 
vn 1 0 0 
vn -1 0 0 
vn 0 -1 0 
vn 0 0 1 
o mesh44
f 80//41 81//41 82//41 
f 82//41 83//41 80//41 
o mesh45
f 81//42 80//42 84//42 
f 84//42 85//42 81//42 
o mesh46
f 83//43 82//43 86//43 
f 86//43 87//43 83//43 
o mesh47
f 88//44 89//44 87//44 
f 87//44 86//44 88//44 
o mesh48
f 90//45 89//45 88//45 
f 88//45 91//45 90//45 
o mesh49
f 91//46 92//46 93//46 
f 93//46 90//46 91//46 
o mesh50
f 93//47 92//47 94//47 
f 94//47 95//47 93//47 
o mesh51
f 96//48 95//48 94//48 
f 94//48 97//48 96//48 
o mesh52
f 98//49 96//49 97//49 
f 97//49 99//49 98//49 
o mesh53
f 99//50 100//50 101//50 
f 101//50 98//50 99//50 
o mesh54
f 101//51 100//51 102//51 
f 102//51 103//51 101//51 
o mesh55
f 104//52 105//52 103//52 
f 103//52 102//52 104//52 
o mesh56
f 106//53 105//53 104//53 
f 104//53 107//53 106//53 
o mesh57
f 107//54 108//54 109//54 
f 109//54 106//54 107//54 
o mesh58
f 109//55 108//55 110//55 
f 110//55 111//55 109//55 
o mesh59
f 112//56 113//56 111//56 
f 111//56 110//56 112//56 
o mesh60
f 114//57 113//57 112//57 
f 112//57 115//57 114//57 
o mesh61
f 116//58 117//58 114//58 
f 114//58 115//58 116//58 
o mesh62
f 117//59 116//59 118//59 
f 118//59 119//59 117//59 
o mesh63
f 120//60 119//60 118//60 
f 118//60 121//60 120//60 
o mesh64
f 122//61 120//61 121//61 
f 121//61 123//61 122//61 
o mesh65
f 123//62 124//62 125//62 
f 125//62 122//62 123//62 
o mesh66
f 125//63 124//63 126//63 
f 126//63 127//63 125//63 
o mesh67
f 128//64 127//64 126//64 
f 126//64 129//64 128//64 
o mesh68
f 130//65 128//65 129//65 
f 129//65 131//65 130//65 
o mesh69
f 131//66 132//66 133//66 
f 133//66 130//66 131//66 
o mesh70
f 133//67 132//67 134//67 
f 134//67 135//67 133//67 
o mesh71
f 136//68 137//68 135//68 
f 135//68 134//68 136//68 
o mesh72
f 138//69 137//69 136//69 
f 136//69 139//69 138//69 
o mesh73
f 139//70 140//70 141//70 
f 141//70 138//70 139//70 
o mesh74
f 141//71 140//71 142//71 
f 142//71 143//71 141//71 
o mesh75
f 144//72 143//72 142//72 
f 142//72 145//72 144//72 
o mesh76
f 146//73 144//73 145//73 
f 145//73 147//73 146//73 
o mesh77
f 147//74 148//74 149//74 
f 149//74 146//74 147//74 
o mesh78
f 148//75 150//75 151//75 
f 151//75 149//75 148//75 
o mesh79
f 152//76 111//76 113//76 
f 152//76 105//76 111//76 
f 152//76 103//76 105//76 
f 152//76 96//76 103//76 
f 149//76 151//76 144//76 
f 151//76 137//76 143//76 
f 152//76 95//76 96//76 
f 143//76 144//76 151//76 
f 141//76 143//76 137//76 
f 152//76 89//76 95//76 
f 137//76 138//76 141//76 
f 151//76 128//76 135//76 
f 114//76 117//76 119//76 
f 152//76 87//76 89//76 
f 135//76 137//76 151//76 
f 128//76 130//76 133//76 
f 105//76 106//76 109//76 
f 113//76 119//76 152//76 
f 133//76 135//76 128//76 
f 151//76 120//76 127//76 
f 96//76 98//76 101//76 
f 119//76 113//76 114//76 
f 127//76 128//76 151//76 
f 125//76 127//76 120//76 
f 89//76 90//76 93//76 
f 109//76 111//76 105//76 
f 84//76 83//76 87//76 
f 120//76 122//76 125//76 
f 151//76 152//76 119//76 
f 101//76 103//76 96//76 
f 87//76 152//76 84//76 
f 119//76 120//76 151//76 
f 84//76 80//76 83//76 
f 93//76 95//76 89//76 
f 144//76 146//76 149//76 
o mesh80
f 85//77 153//77 86//77 
f 82//77 81//77 85//77 
f 153//77 94//77 88//77 
f 88//77 86//77 153//77 
f 91//77 88//77 94//77 
f 94//77 92//77 91//77 
f 153//77 102//77 97//77 
f 153//77 126//77 121//77 
f 123//77 121//77 126//77 
f 97//77 94//77 153//77 
f 99//77 97//77 102//77 
f 126//77 124//77 123//77 
f 153//77 134//77 129//77 
f 102//77 100//77 99//77 
f 153//77 110//77 104//77 
f 129//77 126//77 153//77 
f 131//77 129//77 134//77 
f 104//77 102//77 153//77 
f 107//77 104//77 110//77 
f 134//77 132//77 131//77 
f 153//77 142//77 136//77 
f 110//77 108//77 107//77 
f 153//77 118//77 112//77 
f 136//77 134//77 153//77 
f 139//77 136//77 142//77 
f 150//77 145//77 142//77 
f 148//77 147//77 145//77 
f 112//77 110//77 153//77 
f 115//77 112//77 118//77 
f 142//77 140//77 139//77 
f 145//77 150//77 148//77 
f 118//77 116//77 115//77 
f 142//77 153//77 150//77 
f 121//77 118//77 153//77 
f 86//77 82//77 85//77 
usemtl 0.984314_0.984314_0.984314_0.000000_0.000000
o mesh81
f 154//78 155//78 85//78 
f 85//78 84//78 154//78 
f 155//78 156//78 85//78 
f 84//78 157//78 154//78 
usemtl 0.901961_0.901961_0.901961_0.000000_0.000000
o mesh82
f 158//79 159//79 154//79 
f 154//79 157//79 158//79 
o mesh83
f 160//78 159//78 158//78 
f 158//78 161//78 160//78 
o mesh84
f 162//80 160//80 161//80 
f 161//80 163//80 162//80 
usemtl 0.984314_0.984314_0.984314_0.000000_0.000000
o mesh85
f 164//81 165//81 162//81 
f 162//81 163//81 164//81 
usemtl 0.901961_0.901961_0.901961_0.000000_0.000000
o mesh86
f 166//82 167//82 165//82 
f 165//82 164//82 166//82 
o mesh87
f 84//83 152//83 158//83 
f 152//83 166//83 161//83 
f 161//83 158//83 152//83 
f 166//83 164//83 163//83 
f 163//83 161//83 166//83 
f 168//83 169//83 166//83 
f 166//83 152//83 168//83 
f 158//83 157//83 84//83 
o mesh88
f 170//84 167//84 166//84 
f 166//84 169//84 170//84 
o mesh89
f 155//85 171//85 172//85 
f 172//85 156//85 155//85 
o mesh90
f 171//84 173//84 174//84 
f 174//84 172//84 171//84 
o mesh91
f 175//86 176//86 174//86 
f 174//86 173//86 175//86 
o mesh92
f 153//87 85//87 172//87 
f 177//87 178//87 174//87 
f 172//87 178//87 153//87 
f 172//87 174//87 178//87 
f 85//87 156//87 172//87 
f 174//87 176//87 177//87 
o mesh93
f 179//88 180//88 169//88 
f 181//88 170//88 169//88 
f 169//88 180//88 181//88 
f 169//88 168//88 179//88 
o mesh94
f 181//89 180//89 182//89 
f 182//89 183//89 181//89 
o mesh95
f 183//90 184//90 170//90 
f 184//90 185//90 167//90 
f 167//90 160//90 162//90 
f 167//90 170//90 184//90 
f 167//90 185//90 160//90 
f 162//90 165//90 167//90 
f 185//90 171//90 159//90 
f 159//90 160//90 185//90 
f 154//90 159//90 171//90 
f 171//90 155//90 154//90 
f 185//90 186//90 173//90 
f 173//90 171//90 185//90 
f 187//90 175//90 173//90 
f 173//90 186//90 187//90 
f 170//90 181//90 183//90 
o mesh96
f 188//91 189//91 187//91 
f 187//91 186//91 188//91 
o mesh97
f 188//92 190//92 191//92 
f 192//92 191//92 190//92 
f 190//92 193//92 192//92 
f 191//92 189//92 188//92 
o mesh98
f 192//93 193//93 194//93 
f 193//93 184//93 195//93 
f 195//93 194//93 193//93 
f 183//93 182//93 195//93 
f 195//93 184//93 183//93 
f 194//93 196//93 192//93 
o mesh99
f 182//92 180//92 197//92 
f 179//92 198//92 197//92 
f 197//92 180//92 179//92 
f 197//92 195//92 182//92 
o mesh100
f 199//94 200//94 197//94 
f 197//94 198//94 199//94 
o mesh101
f 195//95 197//95 200//95 
f 200//95 194//95 195//95 
o mesh102
f 199//96 193//96 201//96 
f 202//96 201//96 190//96 
f 201//96 203//96 199//96 
f 201//96 193//96 190//96 
f 190//96 188//96 202//96 
f 188//96 186//96 204//96 
f 186//96 178//96 205//96 
f 204//96 202//96 188//96 
f 205//96 204//96 186//96 
f 205//96 203//96 204//96 
f 186//96 152//96 153//96 
f 153//96 178//96 186//96 
f 150//96 153//96 152//96 
f 168//96 152//96 185//96 
f 152//96 151//96 150//96 
f 152//96 186//96 185//96 
f 185//96 184//96 168//96 
f 168//96 184//96 198//96 
f 198//96 179//96 168//96 
f 184//96 193//96 199//96 
f 199//96 198//96 184//96 
f 203//96 205//96 199//96 
o mesh103
f 178//97 177//97 206//97 
f 207//97 208//97 206//97 
f 206//97 177//97 207//97 
f 202//97 204//97 208//97 
f 208//97 207//97 202//97 
f 206//97 205//97 178//97 
o mesh104
f 201//98 209//98 210//98 
f 211//98 212//98 210//98 
f 210//98 209//98 211//98 
f 210//98 203//98 201//98 
o mesh105
f 206//99 208//99 213//99 
f 213//99 214//99 206//99 
o mesh106
f 212//99 215//99 216//99 
f 216//99 210//99 212//99 
o mesh107
f 175//99 187//99 177//99 
f 187//99 189//99 207//99 
f 207//99 177//99 187//99 
f 189//99 191//99 217//99 
f 218//99 217//99 191//99 
f 217//99 207//99 189//99 
f 191//99 219//99 218//99 
f 191//99 220//99 219//99 
f 191//99 192//99 209//99 
f 209//99 220//99 191//99 
f 196//99 211//99 209//99 
f 209//99 192//99 196//99 
f 177//99 176//99 175//99 
o mesh108
f 199//100 205//100 221//100 
f 221//100 222//100 199//100 
f 222//100 200//100 199//100 
f 222//100 212//100 200//100 
f 222//100 215//100 212//100 
f 206//100 214//100 221//100 
f 221//100 205//100 206//100 
f 196//100 194//100 212//100 
f 212//100 194//100 200//100 
f 212//100 211//100 196//100 
o mesh109
f 223//101 224//101 222//101 
f 222//101 221//101 223//101 
o mesh110
f 218//100 219//100 224//100 
f 224//100 223//100 218//100 
o mesh111
f 203//102 225//102 226//102 
f 226//102 204//102 203//102 
f 226//102 208//102 204//102 
f 226//102 213//102 208//102 
f 210//102 216//102 225//102 
f 225//102 203//102 210//102 
o mesh112
f 219//103 220//103 216//103 
f 227//103 225//103 216//103 
f 224//103 219//103 215//103 
f 216//103 220//103 227//103 
f 216//103 215//103 219//103 
f 215//103 222//103 224//103 
o mesh113
f 218//104 223//104 214//104 
f 228//104 217//104 213//104 
f 214//104 217//104 218//104 
f 214//104 213//104 217//104 
f 223//104 221//104 214//104 
f 213//104 226//104 228//104 
o mesh114
f 201//105 202//105 227//105 
f 207//105 217//105 228//105 
f 227//105 209//105 201//105 
f 227//105 220//105 209//105 
f 228//105 202//105 207//105 
f 228//105 227//105 202//105 
o mesh115
f 228//106 226//106 225//106 
f 225//106 227//106 228//106 
g Part 4
v 16.1746 3.27542 0.476873 
v 16.1746 3.03542 0.476873 
v 16.1746 3.03542 2.77687 
v 16.1746 3.27542 2.77687 
v 20.2546 3.27542 0.476873 
v 20.2546 3.03542 0.476873 
v 20.2546 3.27542 2.77687 
v 20.2546 3.03542 2.77687 
v 20.2046 3.27542 2.72687 
v 16.2246 3.27542 2.72687 
v 20.2046 3.27542 0.526873 
v 16.2246 3.27542 0.526873 
v 16.2246 3.03542 2.72687 
v 16.2246 3.03542 0.526873 
v 20.2046 3.03542 0.526873 
v 20.2046 3.03542 2.72687 
vn -1 0 -1.44812e-16 
vn 0 0 -1 
vn 1 0 0 
vn -3.26536e-16 0 1 
vn 0 1 0 
vn 0 -1 0 
vn 0 0 -1 
vn -1 0 0 
vn 0 0 1 
vn 1 0 1.00929e-16 
usemtl 0.501961_0.501961_0.501961_0.000000_0.000000
o mesh116
f 229//107 230//107 231//107 
f 231//107 232//107 229//107 
o mesh117
f 233//108 234//108 230//108 
f 230//108 229//108 233//108 
o mesh118
f 235//109 236//109 234//109 
f 234//109 233//109 235//109 
o mesh119
f 232//110 231//110 236//110 
f 236//110 235//110 232//110 
o mesh120
f 235//111 237//111 238//111 
f 235//111 233//111 239//111 
f 239//111 237//111 235//111 
f 233//111 229//111 240//111 
f 240//111 239//111 233//111 
f 232//111 238//111 240//111 
f 240//111 229//111 232//111 
f 238//111 232//111 235//111 
o mesh121
f 236//112 231//112 241//112 
f 231//112 230//112 242//112 
f 242//112 241//112 231//112 
f 234//112 243//112 242//112 
f 236//112 244//112 243//112 
f 242//112 230//112 234//112 
f 241//112 244//112 236//112 
f 243//112 234//112 236//112 
o mesh122
f 237//113 244//113 241//113 
f 241//113 238//113 237//113 
o mesh123
f 239//114 243//114 244//114 
f 244//114 237//114 239//114 
o mesh124
f 240//115 242//115 243//115 
f 243//115 239//115 240//115 
o mesh125
f 238//116 241//116 242//116 
f 242//116 240//116 238//116 
g Part 5
v 13.0332 3.21042 0.551873 
v 13.0332 3.10042 0.551873 
v 13.0332 3.10042 2.75187 
v 13.0332 3.21042 2.75187 
v 15.5246 3.21042 0.551873 
v 15.5246 3.10042 0.551873 
v 15.5246 3.21042 2.75187 
v 15.5246 3.10042 2.75187 
vn -1 0 0 
vn 0 0 -1 
vn 1 0 1.89243e-16 
vn 0 0 1 
vn 0 1 0 
vn 0 -1 0 
usemtl 0.901961_0.878431_0.811765_0.000000_0.533333
o mesh126
f 245//117 246//117 247//117 
f 247//117 248//117 245//117 
o mesh127
f 249//118 250//118 246//118 
f 246//118 245//118 249//118 
o mesh128
f 251//119 252//119 250//119 
f 250//119 249//119 251//119 
o mesh129
f 248//120 247//120 252//120 
f 252//120 251//120 248//120 
o mesh130
f 251//121 249//121 245//121 
f 245//121 248//121 251//121 
o mesh131
f 252//122 247//122 246//122 
f 246//122 250//122 252//122 
